<svg width="1600" height="520" viewBox="0 0 1600 520" fill="none" xmlns="http://www.w3.org/2000/svg">
  <defs>
    <linearGradient id="bg" x1="0" y1="0" x2="1600" y2="520" gradientUnits="userSpaceOnUse">
      <stop stop-color="#0B1220"/>
      <stop offset="1" stop-color="#111827"/>
    </linearGradient>
    <linearGradient id="accent" x1="180" y1="80" x2="1180" y2="420" gradientUnits="userSpaceOnUse">
      <stop stop-color="#22C55E" stop-opacity="0.90"/>
      <stop offset="1" stop-color="#38BDF8" stop-opacity="0.85"/>
    </linearGradient>
  </defs>
  <rect width="1600" height="520" rx="28" fill="url(#bg)"/>
  <circle cx="1250" cy="120" r="170" fill="#1E293B" opacity="0.65"/>
  <circle cx="1420" cy="350" r="120" fill="#0F172A" opacity="0.8"/>
  <rect x="80" y="88" width="1440" height="344" rx="24" fill="#0F172A" stroke="#1F2937"/>
  <path d="M110 360C230 320 260 220 370 220C480 220 520 350 640 350C760 350 790 190 920 190C1050 190 1080 320 1200 320C1320 320 1360 170 1490 170" stroke="url(#accent)" stroke-width="12" stroke-linecap="round"/>
  <text x="130" y="170" fill="#E5E7EB" font-size="56" font-weight="700" font-family="Arial, Helvetica, sans-serif">Security &amp; AI Engineering Portfolio</text>
  <text x="130" y="228" fill="#94A3B8" font-size="24" font-family="Arial, Helvetica, sans-serif">Curated technical showcase with strong architecture, reproducible workflows, and professional presentation.</text>
  <g>
    <rect x="130" y="278" width="190" height="46" rx="12" fill="#111827" stroke="#334155"/>
    <text x="154" y="308" fill="#E2E8F0" font-size="18" font-family="Arial, Helvetica, sans-serif">Cybersecurity</text>
    <rect x="338" y="278" width="175" height="46" rx="12" fill="#111827" stroke="#334155"/>
    <text x="365" y="308" fill="#E2E8F0" font-size="18" font-family="Arial, Helvetica, sans-serif">AI Engineering</text>
    <rect x="531" y="278" width="220" height="46" rx="12" fill="#111827" stroke="#334155"/>
    <text x="557" y="308" fill="#E2E8F0" font-size="18" font-family="Arial, Helvetica, sans-serif">Documentation-First</text>
  </g>
</svg>
