<?xml version="1.0" encoding="UTF-8" standalone="no"?>
<!DOCTYPE svg PUBLIC "-//W3C//DTD SVG 1.1//EN"
 "http://www.w3.org/Graphics/SVG/1.1/DTD/svg11.dtd">
<!-- Generated by graphviz version 2.43.0 (0)
 -->
<!-- Title: G Pages: 1 -->
<svg width="2393pt" height="232pt"
 viewBox="0.00 0.00 2393.00 232.00" xmlns="http://www.w3.org/2000/svg" xmlns:xlink="http://www.w3.org/1999/xlink">
<g id="graph0" class="graph" transform="scale(1 1) rotate(0) translate(4 228)">
<title>G</title>
<polygon fill="white" stroke="transparent" points="-4,4 -4,-228 2389,-228 2389,4 -4,4"/>
<g id="clust1" class="cluster">
<title>cluster_campus</title>
<path fill="white" stroke="#b7b7b7" stroke-width="1.2" d="M83,-94C83,-94 1970,-94 1970,-94 1976,-94 1982,-100 1982,-106 1982,-106 1982,-157 1982,-157 1982,-163 1976,-169 1970,-169 1970,-169 83,-169 83,-169 77,-169 71,-163 71,-157 71,-157 71,-106 71,-106 71,-100 77,-94 83,-94"/>
<text text-anchor="middle" x="1026.5" y="-153.8" font-family="Times,serif" font-size="14.00">Campus Network</text>
</g>
<g id="clust5" class="cluster">
<title>cluster_dc</title>
<path fill="white" stroke="#b7b7b7" stroke-width="1.2" d="M1843,-8C1843,-8 2365,-8 2365,-8 2371,-8 2377,-14 2377,-20 2377,-20 2377,-71 2377,-71 2377,-77 2371,-83 2365,-83 2365,-83 1843,-83 1843,-83 1837,-83 1831,-77 1831,-71 1831,-71 1831,-20 1831,-20 1831,-14 1837,-8 1843,-8"/>
<text text-anchor="middle" x="2104" y="-67.8" font-family="Times,serif" font-size="14.00">Data Center</text>
</g>
<!-- adm1 -->
<g id="node1" class="node">
<title>adm1</title>
<ellipse fill="#fff4e6" stroke="#b85f00" cx="187" cy="-120" rx="28.87" ry="18"/>
<text text-anchor="middle" x="187" y="-116.9" font-family="Inter,Arial" font-size="12.00">adm1</text>
</g>
<!-- adm2 -->
<g id="node2" class="node">
<title>adm2</title>
<ellipse fill="#fff4e6" stroke="#b85f00" cx="1147" cy="-120" rx="28.87" ry="18"/>
<text text-anchor="middle" x="1147" y="-116.9" font-family="Inter,Arial" font-size="12.00">adm2</text>
</g>
<!-- adm3 -->
<g id="node3" class="node">
<title>adm3</title>
<ellipse fill="#fff4e6" stroke="#b85f00" cx="1467" cy="-120" rx="28.87" ry="18"/>
<text text-anchor="middle" x="1467" y="-116.9" font-family="Inter,Arial" font-size="12.00">adm3</text>
</g>
<!-- adm4 -->
<g id="node4" class="node">
<title>adm4</title>
<ellipse fill="#fff4e6" stroke="#b85f00" cx="665" cy="-120" rx="28.87" ry="18"/>
<text text-anchor="middle" x="665" y="-116.9" font-family="Inter,Arial" font-size="12.00">adm4</text>
</g>
<!-- adm5 -->
<g id="node5" class="node">
<title>adm5</title>
<ellipse fill="#fff4e6" stroke="#b85f00" cx="985" cy="-120" rx="28.87" ry="18"/>
<text text-anchor="middle" x="985" y="-116.9" font-family="Inter,Arial" font-size="12.00">adm5</text>
</g>
<!-- adm6 -->
<g id="node6" class="node">
<title>adm6</title>
<ellipse fill="#fff4e6" stroke="#b85f00" cx="1787" cy="-120" rx="28.87" ry="18"/>
<text text-anchor="middle" x="1787" y="-116.9" font-family="Inter,Arial" font-size="12.00">adm6</text>
</g>
<!-- dns1 -->
<g id="node7" class="node">
<title>dns1</title>
<path fill="#e9f8ee" stroke="#1f7a3a" stroke-width="1.2" d="M2357,-52C2357,-52 2327,-52 2327,-52 2321,-52 2315,-46 2315,-40 2315,-40 2315,-28 2315,-28 2315,-22 2321,-16 2327,-16 2327,-16 2357,-16 2357,-16 2363,-16 2369,-22 2369,-28 2369,-28 2369,-40 2369,-40 2369,-46 2363,-52 2357,-52"/>
<text text-anchor="middle" x="2342" y="-30.9" font-family="Inter,Arial" font-size="12.00">dns1</text>
</g>
<!-- ftp1 -->
<g id="node8" class="node">
<title>ftp1</title>
<path fill="#e9f8ee" stroke="#1f7a3a" stroke-width="1.2" d="M2278,-52C2278,-52 2248,-52 2248,-52 2242,-52 2236,-46 2236,-40 2236,-40 2236,-28 2236,-28 2236,-22 2242,-16 2248,-16 2248,-16 2278,-16 2278,-16 2284,-16 2290,-22 2290,-28 2290,-28 2290,-40 2290,-40 2290,-46 2284,-52 2278,-52"/>
<text text-anchor="middle" x="2263" y="-30.9" font-family="Inter,Arial" font-size="12.00">ftp1</text>
</g>
<!-- kdc1 -->
<g id="node9" class="node">
<title>kdc1</title>
<path fill="#e9f8ee" stroke="#1f7a3a" stroke-width="1.2" d="M2199,-52C2199,-52 2169,-52 2169,-52 2163,-52 2157,-46 2157,-40 2157,-40 2157,-28 2157,-28 2157,-22 2163,-16 2169,-16 2169,-16 2199,-16 2199,-16 2205,-16 2211,-22 2211,-28 2211,-28 2211,-40 2211,-40 2211,-46 2205,-52 2199,-52"/>
<text text-anchor="middle" x="2184" y="-30.9" font-family="Inter,Arial" font-size="12.00">kdc1</text>
</g>
<!-- mail1 -->
<g id="node10" class="node">
<title>mail1</title>
<path fill="#e9f8ee" stroke="#1f7a3a" stroke-width="1.2" d="M2120,-52C2120,-52 2090,-52 2090,-52 2084,-52 2078,-46 2078,-40 2078,-40 2078,-28 2078,-28 2078,-22 2084,-16 2090,-16 2090,-16 2120,-16 2120,-16 2126,-16 2132,-22 2132,-28 2132,-28 2132,-40 2132,-40 2132,-46 2126,-52 2120,-52"/>
<text text-anchor="middle" x="2105" y="-30.9" font-family="Inter,Arial" font-size="12.00">mail1</text>
</g>
<!-- ntp1 -->
<g id="node11" class="node">
<title>ntp1</title>
<path fill="#e9f8ee" stroke="#1f7a3a" stroke-width="1.2" d="M2041,-52C2041,-52 2011,-52 2011,-52 2005,-52 1999,-46 1999,-40 1999,-40 1999,-28 1999,-28 1999,-22 2005,-16 2011,-16 2011,-16 2041,-16 2041,-16 2047,-16 2053,-22 2053,-28 2053,-28 2053,-40 2053,-40 2053,-46 2047,-52 2041,-52"/>
<text text-anchor="middle" x="2026" y="-30.9" font-family="Inter,Arial" font-size="12.00">ntp1</text>
</g>
<!-- radius1 -->
<g id="node12" class="node">
<title>radius1</title>
<path fill="#e9f8ee" stroke="#1f7a3a" stroke-width="1.2" d="M1962,-52C1962,-52 1930,-52 1930,-52 1924,-52 1918,-46 1918,-40 1918,-40 1918,-28 1918,-28 1918,-22 1924,-16 1930,-16 1930,-16 1962,-16 1962,-16 1968,-16 1974,-22 1974,-28 1974,-28 1974,-40 1974,-40 1974,-46 1968,-52 1962,-52"/>
<text text-anchor="middle" x="1946" y="-30.9" font-family="Inter,Arial" font-size="12.00">radius1</text>
</g>
<!-- s1 -->
<g id="node13" class="node">
<title>s1</title>
<path fill="#eaf2ff" stroke="#2b5fb8" stroke-width="1.4" d="M2041,-224C2041,-224 2011,-224 2011,-224 2005,-224 1999,-218 1999,-212 1999,-212 1999,-200 1999,-200 1999,-194 2005,-188 2011,-188 2011,-188 2041,-188 2041,-188 2047,-188 2053,-194 2053,-200 2053,-200 2053,-212 2053,-212 2053,-218 2047,-224 2041,-224"/>
<text text-anchor="middle" x="2026" y="-202.9" font-family="Inter,Arial" font-size="12.00">s1</text>
</g>
<!-- s10 -->
<g id="node14" class="node">
<title>s10</title>
<path fill="#eaf2ff" stroke="#2b5fb8" stroke-width="1.4" d="M2120,-138C2120,-138 2090,-138 2090,-138 2084,-138 2078,-132 2078,-126 2078,-126 2078,-114 2078,-114 2078,-108 2084,-102 2090,-102 2090,-102 2120,-102 2120,-102 2126,-102 2132,-108 2132,-114 2132,-114 2132,-126 2132,-126 2132,-132 2126,-138 2120,-138"/>
<text text-anchor="middle" x="2105" y="-116.9" font-family="Inter,Arial" font-size="12.00">s10</text>
</g>
<!-- s1&#45;&gt;s10 -->
<g id="edge3" class="edge">
<title>s1&#45;&gt;s10</title>
<path fill="none" stroke="#6e6e6e" stroke-width="1.1" d="M2046.51,-187.64C2052.95,-181.91 2059.95,-175.36 2066,-169 2075.17,-159.35 2084.61,-147.79 2091.9,-138.43"/>
</g>
<!-- s2 -->
<g id="node15" class="node">
<title>s2</title>
<path fill="#eaf2ff" stroke="#2b5fb8" stroke-width="1.4" d="M42,-138C42,-138 12,-138 12,-138 6,-138 0,-132 0,-126 0,-126 0,-114 0,-114 0,-108 6,-102 12,-102 12,-102 42,-102 42,-102 48,-102 54,-108 54,-114 54,-114 54,-126 54,-126 54,-132 48,-138 42,-138"/>
<text text-anchor="middle" x="27" y="-116.9" font-family="Inter,Arial" font-size="12.00">s2</text>
</g>
<!-- s1&#45;&gt;s2 -->
<g id="edge1" class="edge">
<title>s1&#45;&gt;s2</title>
<path fill="none" stroke="#6e6e6e" stroke-width="1.1" d="M1998.93,-200.06C1975.09,-195.95 1939.37,-190.41 1908,-188 1856.95,-184.08 110.97,-191.53 65,-169 51.83,-162.54 41.82,-149.1 35.38,-138.08"/>
</g>
<!-- s3 -->
<g id="node16" class="node">
<title>s3</title>
<path fill="#eaf2ff" stroke="#2b5fb8" stroke-width="1.4" d="M2041,-138C2041,-138 2011,-138 2011,-138 2005,-138 1999,-132 1999,-126 1999,-126 1999,-114 1999,-114 1999,-108 2005,-102 2011,-102 2011,-102 2041,-102 2041,-102 2047,-102 2053,-108 2053,-114 2053,-114 2053,-126 2053,-126 2053,-132 2047,-138 2041,-138"/>
<text text-anchor="middle" x="2026" y="-116.9" font-family="Inter,Arial" font-size="12.00">s3</text>
</g>
<!-- s1&#45;&gt;s3 -->
<g id="edge2" class="edge">
<title>s1&#45;&gt;s3</title>
<path fill="none" stroke="#6e6e6e" stroke-width="1.1" d="M2026,-187.6C2026,-173.08 2026,-152.52 2026,-138.1"/>
</g>
<!-- s10&#45;&gt;dns1 -->
<g id="edge39" class="edge">
<title>s10&#45;&gt;dns1</title>
<path fill="none" stroke="#6e6e6e" stroke-width="1.1" d="M2132.01,-119.83C2172.13,-119.86 2248.57,-115.2 2303,-83 2315.38,-75.67 2325.49,-62.87 2332.31,-52.32"/>
</g>
<!-- s10&#45;&gt;ftp1 -->
<g id="edge36" class="edge">
<title>s10&#45;&gt;ftp1</title>
<path fill="none" stroke="#6e6e6e" stroke-width="1.1" d="M2132,-115.49C2157.48,-111.15 2195.86,-101.89 2224,-83 2235.77,-75.1 2245.77,-62.59 2252.7,-52.32"/>
</g>
<!-- s10&#45;&gt;kdc1 -->
<g id="edge38" class="edge">
<title>s10&#45;&gt;kdc1</title>
<path fill="none" stroke="#6e6e6e" stroke-width="1.1" d="M2125.51,-101.64C2131.95,-95.91 2138.95,-89.36 2145,-83 2154.17,-73.35 2163.61,-61.79 2170.9,-52.43"/>
</g>
<!-- s10&#45;&gt;mail1 -->
<g id="edge35" class="edge">
<title>s10&#45;&gt;mail1</title>
<path fill="none" stroke="#6e6e6e" stroke-width="1.1" d="M2105,-101.6C2105,-87.08 2105,-66.52 2105,-52.1"/>
</g>
<!-- s10&#45;&gt;ntp1 -->
<g id="edge40" class="edge">
<title>s10&#45;&gt;ntp1</title>
<path fill="none" stroke="#6e6e6e" stroke-width="1.1" d="M2085.48,-101.9C2079.1,-96.08 2072.09,-89.41 2066,-83 2056.73,-73.25 2047.06,-61.68 2039.55,-52.35"/>
</g>
<!-- s10&#45;&gt;radius1 -->
<g id="edge37" class="edge">
<title>s10&#45;&gt;radius1</title>
<path fill="none" stroke="#6e6e6e" stroke-width="1.1" d="M2081.94,-101.93C2076.89,-98.86 2071.43,-96.01 2066,-94 2032.75,-81.7 2018.09,-100.03 1987,-83 1973.93,-75.84 1963.17,-62.74 1955.96,-52.03"/>
</g>
<!-- web1 -->
<g id="node41" class="node">
<title>web1</title>
<path fill="#e9f8ee" stroke="#1f7a3a" stroke-width="1.2" d="M1881,-52C1881,-52 1851,-52 1851,-52 1845,-52 1839,-46 1839,-40 1839,-40 1839,-28 1839,-28 1839,-22 1845,-16 1851,-16 1851,-16 1881,-16 1881,-16 1887,-16 1893,-22 1893,-28 1893,-28 1893,-40 1893,-40 1893,-46 1887,-52 1881,-52"/>
<text text-anchor="middle" x="1866" y="-30.9" font-family="Inter,Arial" font-size="12.00">web1</text>
</g>
<!-- s10&#45;&gt;web1 -->
<g id="edge34" class="edge">
<title>s10&#45;&gt;web1</title>
<path fill="none" stroke="#6e6e6e" stroke-width="1.1" d="M2082.46,-101.89C2077.29,-98.75 2071.65,-95.87 2066,-94 2032.16,-82.81 1937.74,-99.22 1906,-83 1892.86,-76.29 1882.39,-63.16 1875.47,-52.33"/>
</g>
<!-- s4 -->
<g id="node17" class="node">
<title>s4</title>
<path fill="#eaf2ff" stroke="#2b5fb8" stroke-width="1.4" d="M202,-224C202,-224 172,-224 172,-224 166,-224 160,-218 160,-212 160,-212 160,-200 160,-200 160,-194 166,-188 172,-188 172,-188 202,-188 202,-188 208,-188 214,-194 214,-200 214,-200 214,-212 214,-212 214,-218 208,-224 202,-224"/>
<text text-anchor="middle" x="187" y="-202.9" font-family="Inter,Arial" font-size="12.00">s4</text>
</g>
<!-- s4&#45;&gt;adm1 -->
<g id="edge13" class="edge">
<title>s4&#45;&gt;adm1</title>
<path fill="none" stroke="#6e6e6e" stroke-width="1.1" d="M187,-187.6C187,-173.08 187,-152.52 187,-138.1"/>
</g>
<!-- s4&#45;&gt;s2 -->
<g id="edge4" class="edge">
<title>s4&#45;&gt;s2</title>
<path fill="none" stroke="#6e6e6e" stroke-width="1.1" d="M159.76,-201.8C133.61,-197.67 93.91,-188.53 65,-169 53.37,-161.15 43.63,-148.63 36.93,-138.35"/>
</g>
<!-- staff1 -->
<g id="node23" class="node">
<title>staff1</title>
<path fill="#eaf2ff" stroke="#2b5fb8" stroke-width="1.4" d="M283,-138C283,-138 253,-138 253,-138 247,-138 241,-132 241,-126 241,-126 241,-114 241,-114 241,-108 247,-102 253,-102 253,-102 283,-102 283,-102 289,-102 295,-108 295,-114 295,-114 295,-126 295,-126 295,-132 289,-138 283,-138"/>
<text text-anchor="middle" x="268" y="-116.9" font-family="Inter,Arial" font-size="12.00">staff1</text>
</g>
<!-- s4&#45;&gt;staff1 -->
<g id="edge12" class="edge">
<title>s4&#45;&gt;staff1</title>
<path fill="none" stroke="#6e6e6e" stroke-width="1.1" d="M208.01,-187.66C214.61,-181.92 221.79,-175.38 228,-169 237.39,-159.37 247.07,-147.8 254.55,-138.44"/>
</g>
<!-- stu1 -->
<g id="node29" class="node">
<title>stu1</title>
<path fill="#eaf2ff" stroke="#2b5fb8" stroke-width="1.4" d="M362,-138C362,-138 332,-138 332,-138 326,-138 320,-132 320,-126 320,-126 320,-114 320,-114 320,-108 326,-102 332,-102 332,-102 362,-102 362,-102 368,-102 374,-108 374,-114 374,-114 374,-126 374,-126 374,-132 368,-138 362,-138"/>
<text text-anchor="middle" x="347" y="-116.9" font-family="Inter,Arial" font-size="12.00">stu1</text>
</g>
<!-- s4&#45;&gt;stu1 -->
<g id="edge10" class="edge">
<title>s4&#45;&gt;stu1</title>
<path fill="none" stroke="#6e6e6e" stroke-width="1.1" d="M214.17,-201.46C239.83,-197.1 278.51,-187.82 307,-169 318.95,-161.11 329.21,-148.59 336.35,-138.32"/>
</g>
<!-- stu2 -->
<g id="node33" class="node">
<title>stu2</title>
<path fill="#eaf2ff" stroke="#2b5fb8" stroke-width="1.4" d="M121,-138C121,-138 91,-138 91,-138 85,-138 79,-132 79,-126 79,-126 79,-114 79,-114 79,-108 85,-102 91,-102 91,-102 121,-102 121,-102 127,-102 133,-108 133,-114 133,-114 133,-126 133,-126 133,-132 127,-138 121,-138"/>
<text text-anchor="middle" x="106" y="-116.9" font-family="Inter,Arial" font-size="12.00">stu2</text>
</g>
<!-- s4&#45;&gt;stu2 -->
<g id="edge11" class="edge">
<title>s4&#45;&gt;stu2</title>
<path fill="none" stroke="#6e6e6e" stroke-width="1.1" d="M165.99,-187.66C159.39,-181.92 152.21,-175.38 146,-169 136.61,-159.37 126.93,-147.8 119.45,-138.44"/>
</g>
<!-- s5 -->
<g id="node18" class="node">
<title>s5</title>
<path fill="#eaf2ff" stroke="#2b5fb8" stroke-width="1.4" d="M1243,-224C1243,-224 1213,-224 1213,-224 1207,-224 1201,-218 1201,-212 1201,-212 1201,-200 1201,-200 1201,-194 1207,-188 1213,-188 1213,-188 1243,-188 1243,-188 1249,-188 1255,-194 1255,-200 1255,-200 1255,-212 1255,-212 1255,-218 1249,-224 1243,-224"/>
<text text-anchor="middle" x="1228" y="-202.9" font-family="Inter,Arial" font-size="12.00">s5</text>
</g>
<!-- s5&#45;&gt;adm2 -->
<g id="edge17" class="edge">
<title>s5&#45;&gt;adm2</title>
<path fill="none" stroke="#6e6e6e" stroke-width="1.1" d="M1208.57,-187.82C1202.2,-181.98 1195.17,-175.34 1189,-169 1178.8,-158.53 1167.96,-146.09 1159.84,-136.5"/>
</g>
<!-- s5&#45;&gt;s3 -->
<g id="edge7" class="edge">
<title>s5&#45;&gt;s3</title>
<path fill="none" stroke="#6e6e6e" stroke-width="1.1" d="M1255.12,-203.17C1305.24,-199.83 1415.77,-192.67 1509,-188 1562.2,-185.34 1940.52,-193.14 1988,-169 2000.88,-162.45 2010.8,-149.31 2017.27,-138.43"/>
</g>
<!-- staff2 -->
<g id="node24" class="node">
<title>staff2</title>
<path fill="#eaf2ff" stroke="#2b5fb8" stroke-width="1.4" d="M1243,-138C1243,-138 1213,-138 1213,-138 1207,-138 1201,-132 1201,-126 1201,-126 1201,-114 1201,-114 1201,-108 1207,-102 1213,-102 1213,-102 1243,-102 1243,-102 1249,-102 1255,-108 1255,-114 1255,-114 1255,-126 1255,-126 1255,-132 1249,-138 1243,-138"/>
<text text-anchor="middle" x="1228" y="-116.9" font-family="Inter,Arial" font-size="12.00">staff2</text>
</g>
<!-- s5&#45;&gt;staff2 -->
<g id="edge16" class="edge">
<title>s5&#45;&gt;staff2</title>
<path fill="none" stroke="#6e6e6e" stroke-width="1.1" d="M1228,-187.6C1228,-173.08 1228,-152.52 1228,-138.1"/>
</g>
<!-- stu3 -->
<g id="node34" class="node">
<title>stu3</title>
<path fill="#eaf2ff" stroke="#2b5fb8" stroke-width="1.4" d="M1081,-138C1081,-138 1051,-138 1051,-138 1045,-138 1039,-132 1039,-126 1039,-126 1039,-114 1039,-114 1039,-108 1045,-102 1051,-102 1051,-102 1081,-102 1081,-102 1087,-102 1093,-108 1093,-114 1093,-114 1093,-126 1093,-126 1093,-132 1087,-138 1081,-138"/>
<text text-anchor="middle" x="1066" y="-116.9" font-family="Inter,Arial" font-size="12.00">stu3</text>
</g>
<!-- s5&#45;&gt;stu3 -->
<g id="edge14" class="edge">
<title>s5&#45;&gt;stu3</title>
<path fill="none" stroke="#6e6e6e" stroke-width="1.1" d="M1200.87,-201.64C1174.8,-197.39 1135.16,-188.17 1106,-169 1094.03,-161.14 1083.77,-148.62 1076.64,-138.34"/>
</g>
<!-- stu4 -->
<g id="node35" class="node">
<title>stu4</title>
<path fill="#eaf2ff" stroke="#2b5fb8" stroke-width="1.4" d="M1322,-138C1322,-138 1292,-138 1292,-138 1286,-138 1280,-132 1280,-126 1280,-126 1280,-114 1280,-114 1280,-108 1286,-102 1292,-102 1292,-102 1322,-102 1322,-102 1328,-102 1334,-108 1334,-114 1334,-114 1334,-126 1334,-126 1334,-132 1328,-138 1322,-138"/>
<text text-anchor="middle" x="1307" y="-116.9" font-family="Inter,Arial" font-size="12.00">stu4</text>
</g>
<!-- s5&#45;&gt;stu4 -->
<g id="edge15" class="edge">
<title>s5&#45;&gt;stu4</title>
<path fill="none" stroke="#6e6e6e" stroke-width="1.1" d="M1248.51,-187.64C1254.95,-181.91 1261.95,-175.36 1268,-169 1277.17,-159.35 1286.61,-147.79 1293.9,-138.43"/>
</g>
<!-- s6 -->
<g id="node19" class="node">
<title>s6</title>
<path fill="#eaf2ff" stroke="#2b5fb8" stroke-width="1.4" d="M1563,-224C1563,-224 1533,-224 1533,-224 1527,-224 1521,-218 1521,-212 1521,-212 1521,-200 1521,-200 1521,-194 1527,-188 1533,-188 1533,-188 1563,-188 1563,-188 1569,-188 1575,-194 1575,-200 1575,-200 1575,-212 1575,-212 1575,-218 1569,-224 1563,-224"/>
<text text-anchor="middle" x="1548" y="-202.9" font-family="Inter,Arial" font-size="12.00">s6</text>
</g>
<!-- s6&#45;&gt;adm3 -->
<g id="edge21" class="edge">
<title>s6&#45;&gt;adm3</title>
<path fill="none" stroke="#6e6e6e" stroke-width="1.1" d="M1528.57,-187.82C1522.2,-181.98 1515.17,-175.34 1509,-169 1498.8,-158.53 1487.96,-146.09 1479.84,-136.5"/>
</g>
<!-- s6&#45;&gt;s3 -->
<g id="edge8" class="edge">
<title>s6&#45;&gt;s3</title>
<path fill="none" stroke="#6e6e6e" stroke-width="1.1" d="M1575.21,-203.37C1668.36,-197.72 1969.73,-178.78 1988,-169 2000.74,-162.18 2010.67,-149.06 2017.18,-138.26"/>
</g>
<!-- staff3 -->
<g id="node25" class="node">
<title>staff3</title>
<path fill="#eaf2ff" stroke="#2b5fb8" stroke-width="1.4" d="M1642,-138C1642,-138 1612,-138 1612,-138 1606,-138 1600,-132 1600,-126 1600,-126 1600,-114 1600,-114 1600,-108 1606,-102 1612,-102 1612,-102 1642,-102 1642,-102 1648,-102 1654,-108 1654,-114 1654,-114 1654,-126 1654,-126 1654,-132 1648,-138 1642,-138"/>
<text text-anchor="middle" x="1627" y="-116.9" font-family="Inter,Arial" font-size="12.00">staff3</text>
</g>
<!-- s6&#45;&gt;staff3 -->
<g id="edge20" class="edge">
<title>s6&#45;&gt;staff3</title>
<path fill="none" stroke="#6e6e6e" stroke-width="1.1" d="M1568.51,-187.64C1574.95,-181.91 1581.95,-175.36 1588,-169 1597.17,-159.35 1606.61,-147.79 1613.9,-138.43"/>
</g>
<!-- stu5 -->
<g id="node36" class="node">
<title>stu5</title>
<path fill="#eaf2ff" stroke="#2b5fb8" stroke-width="1.4" d="M1401,-138C1401,-138 1371,-138 1371,-138 1365,-138 1359,-132 1359,-126 1359,-126 1359,-114 1359,-114 1359,-108 1365,-102 1371,-102 1371,-102 1401,-102 1401,-102 1407,-102 1413,-108 1413,-114 1413,-114 1413,-126 1413,-126 1413,-132 1407,-138 1401,-138"/>
<text text-anchor="middle" x="1386" y="-116.9" font-family="Inter,Arial" font-size="12.00">stu5</text>
</g>
<!-- s6&#45;&gt;stu5 -->
<g id="edge18" class="edge">
<title>s6&#45;&gt;stu5</title>
<path fill="none" stroke="#6e6e6e" stroke-width="1.1" d="M1520.87,-201.64C1494.8,-197.39 1455.16,-188.17 1426,-169 1414.03,-161.14 1403.77,-148.62 1396.64,-138.34"/>
</g>
<!-- stu6 -->
<g id="node37" class="node">
<title>stu6</title>
<path fill="#eaf2ff" stroke="#2b5fb8" stroke-width="1.4" d="M1563,-138C1563,-138 1533,-138 1533,-138 1527,-138 1521,-132 1521,-126 1521,-126 1521,-114 1521,-114 1521,-108 1527,-102 1533,-102 1533,-102 1563,-102 1563,-102 1569,-102 1575,-108 1575,-114 1575,-114 1575,-126 1575,-126 1575,-132 1569,-138 1563,-138"/>
<text text-anchor="middle" x="1548" y="-116.9" font-family="Inter,Arial" font-size="12.00">stu6</text>
</g>
<!-- s6&#45;&gt;stu6 -->
<g id="edge19" class="edge">
<title>s6&#45;&gt;stu6</title>
<path fill="none" stroke="#6e6e6e" stroke-width="1.1" d="M1548,-187.6C1548,-173.08 1548,-152.52 1548,-138.1"/>
</g>
<!-- s7 -->
<g id="node20" class="node">
<title>s7</title>
<path fill="#eaf2ff" stroke="#2b5fb8" stroke-width="1.4" d="M520,-224C520,-224 490,-224 490,-224 484,-224 478,-218 478,-212 478,-212 478,-200 478,-200 478,-194 484,-188 490,-188 490,-188 520,-188 520,-188 526,-188 532,-194 532,-200 532,-200 532,-212 532,-212 532,-218 526,-224 520,-224"/>
<text text-anchor="middle" x="505" y="-202.9" font-family="Inter,Arial" font-size="12.00">s7</text>
</g>
<!-- s7&#45;&gt;adm4 -->
<g id="edge25" class="edge">
<title>s7&#45;&gt;adm4</title>
<path fill="none" stroke="#6e6e6e" stroke-width="1.1" d="M532.39,-201.24C557.79,-196.76 595.81,-187.42 624,-169 636.66,-160.73 647.59,-147.42 654.97,-136.92"/>
</g>
<!-- s7&#45;&gt;s2 -->
<g id="edge5" class="edge">
<title>s7&#45;&gt;s2</title>
<path fill="none" stroke="#6e6e6e" stroke-width="1.1" d="M477.79,-203.37C384.64,-197.72 83.27,-178.78 65,-169 52.26,-162.18 42.33,-149.06 35.82,-138.26"/>
</g>
<!-- staff4 -->
<g id="node26" class="node">
<title>staff4</title>
<path fill="#eaf2ff" stroke="#2b5fb8" stroke-width="1.4" d="M520,-138C520,-138 490,-138 490,-138 484,-138 478,-132 478,-126 478,-126 478,-114 478,-114 478,-108 484,-102 490,-102 490,-102 520,-102 520,-102 526,-102 532,-108 532,-114 532,-114 532,-126 532,-126 532,-132 526,-138 520,-138"/>
<text text-anchor="middle" x="505" y="-116.9" font-family="Inter,Arial" font-size="12.00">staff4</text>
</g>
<!-- s7&#45;&gt;staff4 -->
<g id="edge24" class="edge">
<title>s7&#45;&gt;staff4</title>
<path fill="none" stroke="#6e6e6e" stroke-width="1.1" d="M505,-187.6C505,-173.08 505,-152.52 505,-138.1"/>
</g>
<!-- stu7 -->
<g id="node38" class="node">
<title>stu7</title>
<path fill="#eaf2ff" stroke="#2b5fb8" stroke-width="1.4" d="M599,-138C599,-138 569,-138 569,-138 563,-138 557,-132 557,-126 557,-126 557,-114 557,-114 557,-108 563,-102 569,-102 569,-102 599,-102 599,-102 605,-102 611,-108 611,-114 611,-114 611,-126 611,-126 611,-132 605,-138 599,-138"/>
<text text-anchor="middle" x="584" y="-116.9" font-family="Inter,Arial" font-size="12.00">stu7</text>
</g>
<!-- s7&#45;&gt;stu7 -->
<g id="edge22" class="edge">
<title>s7&#45;&gt;stu7</title>
<path fill="none" stroke="#6e6e6e" stroke-width="1.1" d="M525.51,-187.64C531.95,-181.91 538.95,-175.36 545,-169 554.17,-159.35 563.61,-147.79 570.9,-138.43"/>
</g>
<!-- stu8 -->
<g id="node39" class="node">
<title>stu8</title>
<path fill="#eaf2ff" stroke="#2b5fb8" stroke-width="1.4" d="M441,-138C441,-138 411,-138 411,-138 405,-138 399,-132 399,-126 399,-126 399,-114 399,-114 399,-108 405,-102 411,-102 411,-102 441,-102 441,-102 447,-102 453,-108 453,-114 453,-114 453,-126 453,-126 453,-132 447,-138 441,-138"/>
<text text-anchor="middle" x="426" y="-116.9" font-family="Inter,Arial" font-size="12.00">stu8</text>
</g>
<!-- s7&#45;&gt;stu8 -->
<g id="edge23" class="edge">
<title>s7&#45;&gt;stu8</title>
<path fill="none" stroke="#6e6e6e" stroke-width="1.1" d="M485.48,-187.9C479.1,-182.08 472.09,-175.41 466,-169 456.73,-159.25 447.06,-147.68 439.55,-138.35"/>
</g>
<!-- s8 -->
<g id="node21" class="node">
<title>s8</title>
<path fill="#eaf2ff" stroke="#2b5fb8" stroke-width="1.4" d="M840,-224C840,-224 810,-224 810,-224 804,-224 798,-218 798,-212 798,-212 798,-200 798,-200 798,-194 804,-188 810,-188 810,-188 840,-188 840,-188 846,-188 852,-194 852,-200 852,-200 852,-212 852,-212 852,-218 846,-224 840,-224"/>
<text text-anchor="middle" x="825" y="-202.9" font-family="Inter,Arial" font-size="12.00">s8</text>
</g>
<!-- s8&#45;&gt;adm5 -->
<g id="edge29" class="edge">
<title>s8&#45;&gt;adm5</title>
<path fill="none" stroke="#6e6e6e" stroke-width="1.1" d="M852.39,-201.24C877.79,-196.76 915.81,-187.42 944,-169 956.66,-160.73 967.59,-147.42 974.97,-136.92"/>
</g>
<!-- s8&#45;&gt;s2 -->
<g id="edge6" class="edge">
<title>s8&#45;&gt;s2</title>
<path fill="none" stroke="#6e6e6e" stroke-width="1.1" d="M797.98,-203.17C748.04,-199.83 637.9,-192.66 545,-188 491.69,-185.33 112.58,-193.19 65,-169 52.11,-162.45 42.2,-149.31 35.73,-138.43"/>
</g>
<!-- staff5 -->
<g id="node27" class="node">
<title>staff5</title>
<path fill="#eaf2ff" stroke="#2b5fb8" stroke-width="1.4" d="M919,-138C919,-138 889,-138 889,-138 883,-138 877,-132 877,-126 877,-126 877,-114 877,-114 877,-108 883,-102 889,-102 889,-102 919,-102 919,-102 925,-102 931,-108 931,-114 931,-114 931,-126 931,-126 931,-132 925,-138 919,-138"/>
<text text-anchor="middle" x="904" y="-116.9" font-family="Inter,Arial" font-size="12.00">staff5</text>
</g>
<!-- s8&#45;&gt;staff5 -->
<g id="edge28" class="edge">
<title>s8&#45;&gt;staff5</title>
<path fill="none" stroke="#6e6e6e" stroke-width="1.1" d="M845.51,-187.64C851.95,-181.91 858.95,-175.36 865,-169 874.17,-159.35 883.61,-147.79 890.9,-138.43"/>
</g>
<!-- stu10 -->
<g id="node30" class="node">
<title>stu10</title>
<path fill="#eaf2ff" stroke="#2b5fb8" stroke-width="1.4" d="M761,-138C761,-138 731,-138 731,-138 725,-138 719,-132 719,-126 719,-126 719,-114 719,-114 719,-108 725,-102 731,-102 731,-102 761,-102 761,-102 767,-102 773,-108 773,-114 773,-114 773,-126 773,-126 773,-132 767,-138 761,-138"/>
<text text-anchor="middle" x="746" y="-116.9" font-family="Inter,Arial" font-size="12.00">stu10</text>
</g>
<!-- s8&#45;&gt;stu10 -->
<g id="edge27" class="edge">
<title>s8&#45;&gt;stu10</title>
<path fill="none" stroke="#6e6e6e" stroke-width="1.1" d="M805.48,-187.9C799.1,-182.08 792.09,-175.41 786,-169 776.73,-159.25 767.06,-147.68 759.55,-138.35"/>
</g>
<!-- stu9 -->
<g id="node40" class="node">
<title>stu9</title>
<path fill="#eaf2ff" stroke="#2b5fb8" stroke-width="1.4" d="M840,-138C840,-138 810,-138 810,-138 804,-138 798,-132 798,-126 798,-126 798,-114 798,-114 798,-108 804,-102 810,-102 810,-102 840,-102 840,-102 846,-102 852,-108 852,-114 852,-114 852,-126 852,-126 852,-132 846,-138 840,-138"/>
<text text-anchor="middle" x="825" y="-116.9" font-family="Inter,Arial" font-size="12.00">stu9</text>
</g>
<!-- s8&#45;&gt;stu9 -->
<g id="edge26" class="edge">
<title>s8&#45;&gt;stu9</title>
<path fill="none" stroke="#6e6e6e" stroke-width="1.1" d="M825,-187.6C825,-173.08 825,-152.52 825,-138.1"/>
</g>
<!-- s9 -->
<g id="node22" class="node">
<title>s9</title>
<path fill="#eaf2ff" stroke="#2b5fb8" stroke-width="1.4" d="M1883,-224C1883,-224 1853,-224 1853,-224 1847,-224 1841,-218 1841,-212 1841,-212 1841,-200 1841,-200 1841,-194 1847,-188 1853,-188 1853,-188 1883,-188 1883,-188 1889,-188 1895,-194 1895,-200 1895,-200 1895,-212 1895,-212 1895,-218 1889,-224 1883,-224"/>
<text text-anchor="middle" x="1868" y="-202.9" font-family="Inter,Arial" font-size="12.00">s9</text>
</g>
<!-- s9&#45;&gt;adm6 -->
<g id="edge33" class="edge">
<title>s9&#45;&gt;adm6</title>
<path fill="none" stroke="#6e6e6e" stroke-width="1.1" d="M1848.57,-187.82C1842.2,-181.98 1835.17,-175.34 1829,-169 1818.8,-158.53 1807.96,-146.09 1799.84,-136.5"/>
</g>
<!-- s9&#45;&gt;s3 -->
<g id="edge9" class="edge">
<title>s9&#45;&gt;s3</title>
<path fill="none" stroke="#6e6e6e" stroke-width="1.1" d="M1895.28,-201.62C1921.01,-197.37 1959.75,-188.18 1988,-169 1999.61,-161.12 2009.35,-148.61 2016.06,-138.33"/>
</g>
<!-- staff6 -->
<g id="node28" class="node">
<title>staff6</title>
<path fill="#eaf2ff" stroke="#2b5fb8" stroke-width="1.4" d="M1721,-138C1721,-138 1691,-138 1691,-138 1685,-138 1679,-132 1679,-126 1679,-126 1679,-114 1679,-114 1679,-108 1685,-102 1691,-102 1691,-102 1721,-102 1721,-102 1727,-102 1733,-108 1733,-114 1733,-114 1733,-126 1733,-126 1733,-132 1727,-138 1721,-138"/>
<text text-anchor="middle" x="1706" y="-116.9" font-family="Inter,Arial" font-size="12.00">staff6</text>
</g>
<!-- s9&#45;&gt;staff6 -->
<g id="edge32" class="edge">
<title>s9&#45;&gt;staff6</title>
<path fill="none" stroke="#6e6e6e" stroke-width="1.1" d="M1840.87,-201.64C1814.8,-197.39 1775.16,-188.17 1746,-169 1734.03,-161.14 1723.77,-148.62 1716.64,-138.34"/>
</g>
<!-- stu11 -->
<g id="node31" class="node">
<title>stu11</title>
<path fill="#eaf2ff" stroke="#2b5fb8" stroke-width="1.4" d="M1962,-138C1962,-138 1932,-138 1932,-138 1926,-138 1920,-132 1920,-126 1920,-126 1920,-114 1920,-114 1920,-108 1926,-102 1932,-102 1932,-102 1962,-102 1962,-102 1968,-102 1974,-108 1974,-114 1974,-114 1974,-126 1974,-126 1974,-132 1968,-138 1962,-138"/>
<text text-anchor="middle" x="1947" y="-116.9" font-family="Inter,Arial" font-size="12.00">stu11</text>
</g>
<!-- s9&#45;&gt;stu11 -->
<g id="edge30" class="edge">
<title>s9&#45;&gt;stu11</title>
<path fill="none" stroke="#6e6e6e" stroke-width="1.1" d="M1888.51,-187.64C1894.95,-181.91 1901.95,-175.36 1908,-169 1917.17,-159.35 1926.61,-147.79 1933.9,-138.43"/>
</g>
<!-- stu12 -->
<g id="node32" class="node">
<title>stu12</title>
<path fill="#eaf2ff" stroke="#2b5fb8" stroke-width="1.4" d="M1883,-138C1883,-138 1853,-138 1853,-138 1847,-138 1841,-132 1841,-126 1841,-126 1841,-114 1841,-114 1841,-108 1847,-102 1853,-102 1853,-102 1883,-102 1883,-102 1889,-102 1895,-108 1895,-114 1895,-114 1895,-126 1895,-126 1895,-132 1889,-138 1883,-138"/>
<text text-anchor="middle" x="1868" y="-116.9" font-family="Inter,Arial" font-size="12.00">stu12</text>
</g>
<!-- s9&#45;&gt;stu12 -->
<g id="edge31" class="edge">
<title>s9&#45;&gt;stu12</title>
<path fill="none" stroke="#6e6e6e" stroke-width="1.1" d="M1868,-187.6C1868,-173.08 1868,-152.52 1868,-138.1"/>
</g>
</g>
</svg>
