<svg xmlns="http://www.w3.org/2000/svg" width="1200" height="700" viewBox="0 0 1200 700" role="img" aria-label="Services Status Page">
  <defs>
    <linearGradient id="bg" x1="0" y1="0" x2="1" y2="1">
      <stop offset="0%" stop-color="#0b1220"/>
      <stop offset="100%" stop-color="#173249"/>
    </linearGradient>
  </defs>
  <rect width="1200" height="700" fill="url(#bg)"/>
  <rect x="30" y="30" width="1140" height="70" rx="12" fill="#123552" stroke="#38bdf8"/>
  <text x="60" y="75" fill="#eff8ff" font-size="30" font-family="Segoe UI, Arial, sans-serif" font-weight="700">Services Status</text>
  <rect x="30" y="130" width="1140" height="530" rx="12" fill="#0e2238" stroke="#2b5d87"/>
  <rect x="50" y="170" width="1100" height="90" rx="10" fill="#17334e"/>
  <circle cx="90" cy="215" r="12" fill="#22c55e"/>
  <text x="120" y="222" fill="#dcffe7" font-size="28" font-family="Segoe UI, Arial, sans-serif">Controller API</text>
  <text x="930" y="222" fill="#9ef0ba" font-size="24" font-family="Segoe UI, Arial, sans-serif">Healthy</text>
  <rect x="50" y="280" width="1100" height="90" rx="10" fill="#17334e"/>
  <circle cx="90" cy="325" r="12" fill="#22c55e"/>
  <text x="120" y="332" fill="#dcffe7" font-size="28" font-family="Segoe UI, Arial, sans-serif">FreeRADIUS</text>
  <text x="930" y="332" fill="#9ef0ba" font-size="24" font-family="Segoe UI, Arial, sans-serif">Healthy</text>
  <rect x="50" y="390" width="1100" height="90" rx="10" fill="#17334e"/>
  <circle cx="90" cy="435" r="12" fill="#22c55e"/>
  <text x="120" y="442" fill="#dcffe7" font-size="28" font-family="Segoe UI, Arial, sans-serif">Kerberos KDC</text>
  <text x="930" y="442" fill="#9ef0ba" font-size="24" font-family="Segoe UI, Arial, sans-serif">Healthy</text>
  <rect x="50" y="500" width="1100" height="90" rx="10" fill="#17334e"/>
  <circle cx="90" cy="545" r="12" fill="#f59e0b"/>
  <text x="120" y="552" fill="#fff2da" font-size="28" font-family="Segoe UI, Arial, sans-serif">Log Aggregation</text>
  <text x="900" y="552" fill="#ffe2ad" font-size="24" font-family="Segoe UI, Arial, sans-serif">Degraded</text>
</svg>
