<svg xmlns="http://www.w3.org/2000/svg" width="1200" height="700" viewBox="0 0 1200 700" role="img" aria-label="Dashboard Overview">
  <defs>
    <linearGradient id="bg" x1="0" y1="0" x2="1" y2="1">
      <stop offset="0%" stop-color="#0b1220"/>
      <stop offset="100%" stop-color="#132b46"/>
    </linearGradient>
  </defs>
  <rect width="1200" height="700" fill="url(#bg)"/>
  <rect x="30" y="30" width="1140" height="70" rx="12" fill="#0f2e4e" stroke="#2ea7ff" opacity="0.85"/>
  <text x="60" y="75" fill="#e6f2ff" font-size="30" font-family="Segoe UI, Arial, sans-serif" font-weight="700">Dashboard Overview</text>
  <rect x="30" y="130" width="360" height="160" rx="12" fill="#113a5f" stroke="#52c7ff"/>
  <rect x="420" y="130" width="360" height="160" rx="12" fill="#133f57" stroke="#3bd1a6"/>
  <rect x="810" y="130" width="360" height="160" rx="12" fill="#1a3f76" stroke="#6ea8ff"/>
  <text x="60" y="190" fill="#ffffff" font-size="24" font-family="Segoe UI, Arial, sans-serif">Active Sessions</text>
  <text x="450" y="190" fill="#ffffff" font-size="24" font-family="Segoe UI, Arial, sans-serif">Policy Hits</text>
  <text x="840" y="190" fill="#ffffff" font-size="24" font-family="Segoe UI, Arial, sans-serif">Auth Success</text>
  <text x="60" y="245" fill="#9ee0ff" font-size="44" font-family="Segoe UI, Arial, sans-serif" font-weight="700">124</text>
  <text x="450" y="245" fill="#79f0ce" font-size="44" font-family="Segoe UI, Arial, sans-serif" font-weight="700">87%</text>
  <text x="840" y="245" fill="#b7d3ff" font-size="44" font-family="Segoe UI, Arial, sans-serif" font-weight="700">96%</text>
  <rect x="30" y="330" width="1140" height="330" rx="12" fill="#0b2338" stroke="#2f7db5"/>
  <polyline points="70,590 180,520 290,540 400,460 510,470 620,410 730,430 840,360 950,375 1060,340" fill="none" stroke="#44d5ff" stroke-width="5"/>
  <text x="60" y="375" fill="#d8ebff" font-size="24" font-family="Segoe UI, Arial, sans-serif">Session Risk Trend</text>
</svg>
