<svg width="1200" height="320" viewBox="0 0 1200 320" fill="none" xmlns="http://www.w3.org/2000/svg">
  <defs>
    <linearGradient id="bg" x1="0" y1="0" x2="1200" y2="320" gradientUnits="userSpaceOnUse">
      <stop stop-color="#081120"/>
      <stop offset="1" stop-color="#132B48"/>
    </linearGradient>
    <linearGradient id="accent" x1="0" y1="0" x2="1" y2="1">
      <stop stop-color="#2FE6DE"/>
      <stop offset="1" stop-color="#53A8FF"/>
    </linearGradient>
    <filter id="glow" x="-20%" y="-20%" width="140%" height="140%">
      <feGaussianBlur stdDeviation="14" result="blur"/>
      <feMerge>
        <feMergeNode in="blur"/>
        <feMergeNode in="SourceGraphic"/>
      </feMerge>
    </filter>
  </defs>

  <rect width="1200" height="320" rx="28" fill="url(#bg)"/>
  <circle cx="1030" cy="78" r="120" fill="#1FD6D0" opacity="0.08"/>
  <circle cx="1115" cy="248" r="164" fill="#4E8FFF" opacity="0.10"/>
  <path d="M0 256C145 218 248 173 362 153C493 129 601 169 731 163C866 156 1005 108 1200 59V320H0V256Z" fill="#FFFFFF" opacity="0.03"/>

  <g opacity="0.92">
    <rect x="76" y="70" width="190" height="44" rx="22" fill="#FFFFFF" opacity="0.08"/>
    <text x="112" y="98" fill="#DCEBFF" font-family="Inter,Segoe UI,Arial,sans-serif" font-size="18" font-weight="600">PORTFOLIO</text>
    <circle cx="100" cy="92" r="6" fill="#2FE6DE"/>
  </g>

  <text x="76" y="164" fill="#FFFFFF" font-family="Inter,Segoe UI,Arial,sans-serif" font-size="46" font-weight="700">Security &amp; AI Engineering</text>
  <text x="76" y="210" fill="#B8D1EE" font-family="Inter,Segoe UI,Arial,sans-serif" font-size="24">Curated technical work in AI security, SDN access control, and research-oriented engineering.</text>

  <g filter="url(#glow)">
    <path d="M856 90H1074" stroke="url(#accent)" stroke-width="12" stroke-linecap="round"/>
    <path d="M920 150H1124" stroke="#75C8FF" stroke-width="12" stroke-linecap="round" opacity="0.8"/>
    <path d="M876 210H1050" stroke="#2FE6DE" stroke-width="12" stroke-linecap="round" opacity="0.72"/>
  </g>

  <g opacity="0.9">
    <circle cx="846" cy="90" r="12" fill="#2FE6DE"/>
    <circle cx="1100" cy="90" r="12" fill="#53A8FF"/>
    <circle cx="902" cy="150" r="12" fill="#FFFFFF"/>
    <circle cx="1150" cy="150" r="12" fill="#53A8FF"/>
    <circle cx="854" cy="210" r="12" fill="#FFFFFF"/>
    <circle cx="1076" cy="210" r="12" fill="#2FE6DE"/>
  </g>
</svg>
