<svg width="1200" height="620" viewBox="0 0 1200 620" fill="none" xmlns="http://www.w3.org/2000/svg">
  <rect width="1200" height="620" rx="18" fill="#0B1324"/>
  <text x="42" y="52" fill="#E2E8F0" font-family="Segoe UI, Arial, sans-serif" font-size="28" font-weight="700">SDN Hybrid AAA Architecture</text>

  <rect x="70" y="120" width="210" height="90" rx="12" fill="#1D4ED8"/>
  <text x="95" y="172" fill="#E0ECFF" font-family="Segoe UI" font-size="22" font-weight="600">Client Hosts</text>

  <rect x="340" y="120" width="230" height="90" rx="12" fill="#0F766E"/>
  <text x="374" y="172" fill="#D1FAE5" font-family="Segoe UI" font-size="22" font-weight="600">SDN Controller</text>

  <rect x="640" y="80" width="220" height="90" rx="12" fill="#7C3AED"/>
  <text x="681" y="132" fill="#EDE9FE" font-family="Segoe UI" font-size="22" font-weight="600">RADIUS</text>

  <rect x="640" y="200" width="220" height="90" rx="12" fill="#C2410C"/>
  <text x="678" y="252" fill="#FFEDD5" font-family="Segoe UI" font-size="22" font-weight="600">Kerberos</text>

  <rect x="930" y="120" width="210" height="90" rx="12" fill="#1E3A8A"/>
  <text x="955" y="172" fill="#DBEAFE" font-family="Segoe UI" font-size="22" font-weight="600">Policy Engine</text>

  <rect x="340" y="340" width="230" height="90" rx="12" fill="#0F172A" stroke="#475569"/>
  <text x="376" y="392" fill="#CBD5E1" font-family="Segoe UI" font-size="22" font-weight="600">Dashboard API</text>

  <rect x="640" y="340" width="220" height="90" rx="12" fill="#0F172A" stroke="#475569"/>
  <text x="668" y="392" fill="#CBD5E1" font-family="Segoe UI" font-size="22" font-weight="600">Event Logs</text>

  <rect x="930" y="340" width="210" height="90" rx="12" fill="#0F172A" stroke="#475569"/>
  <text x="965" y="392" fill="#CBD5E1" font-family="Segoe UI" font-size="22" font-weight="600">Metrics Store</text>

  <path d="M280 165H340" stroke="#60A5FA" stroke-width="4" marker-end="url(#arrow)"/>
  <path d="M570 140H640" stroke="#34D399" stroke-width="4" marker-end="url(#arrow)"/>
  <path d="M570 190H640" stroke="#F59E0B" stroke-width="4" marker-end="url(#arrow)"/>
  <path d="M860 165H930" stroke="#A78BFA" stroke-width="4" marker-end="url(#arrow)"/>
  <path d="M455 210V340" stroke="#94A3B8" stroke-width="4" marker-end="url(#arrow)"/>
  <path d="M570 385H640" stroke="#94A3B8" stroke-width="4" marker-end="url(#arrow)"/>
  <path d="M860 385H930" stroke="#94A3B8" stroke-width="4" marker-end="url(#arrow)"/>

  <text x="74" y="510" fill="#94A3B8" font-family="Segoe UI" font-size="18">Flow: Client admission -> RADIUS auth -> Kerberos step-up -> Policy enforcement -> Observability.</text>

  <defs>
    <marker id="arrow" markerWidth="10" markerHeight="10" refX="9" refY="5" orient="auto">
      <path d="M0,0 L10,5 L0,10 z" fill="#94A3B8"/>
    </marker>
  </defs>
</svg>
